<svg xmlns="http://www.w3.org/2000/svg" width="4500" height="1386" viewBox="0 0 4500 1386" fill="none"><path d="M910.2 348.9C910.2 360.6 910.2 371.6 910.2 382.5C910.7 382.7 911.1 382.9 911.6 383.2C921 374.6 930.4 366 939.8 357.4C940.3 357.5 940.8 357.6 941.2 357.7C939.6 366.7 938.8 375.9 936.4 384.6C930.7 404.6 924.1 424.4 918.1 444.4C917.3 447.2 917.1 450.5 917.7 453.3C924.2 482.9 936.1 510.2 952.5 535.7C957.6 543.6 962.4 552.5 964.3 561.6C967.6 577.4 976.8 587.2 990.9 592.8C1006.4 598.8 1022.2 603.7 1037.9 609.3C1050.1 613.6 1062 618.4 1071.3 628C1080.8 637.7 1083.9 649.6 1082.8 662.6C1081.1 683.6 1073.3 702.9 1063.1 721C1056.4 732.9 1045 739.4 1032.1 743.3C1014.2 748.7 995.7 748.5 977.3 748.2C956.9 747.9 936.6 747.2 916.2 747.2C907.2 747.2 898.3 748.9 890.5 753.8C880.3 760.3 876.2 770.9 872.8 781.7C866.5 801.9 866 822.8 866.5 843.7C867.4 879.6 873 915.1 878 950.6C880.6 969.1 882.9 987.8 884.2 1006.4C885.3 1022.3 881.6 1026.5 865.5 1027C843.5 1027.7 821.5 1027.7 799.6 1026.6C771.6 1025.2 743.7 1022.3 715.7 1020.2C695.2 1018.6 674.7 1017.2 654.2 1015.8C628.4 1014.1 603.6 1019.5 580.7 1030.5C554.3 1043.1 528.9 1057.9 503.1 1071.8C483.7 1082.3 463.8 1091.7 441.5 1094.1C421.8 1096.3 402 1095.5 382.7 1091.1C354.9 1084.8 327.4 1077.5 299.7 1070.7C292.9 1069 286.1 1067.6 279.2 1066.3C276.4 1065.8 274.9 1064.4 275.5 1061.7C276.2 1058.5 276.8 1054.7 278.8 1052.4C289.3 1040 300 1027.7 311.1 1015.8C335.9 989.1 363.8 965.8 392.4 943.3C428.7 914.6 465.5 886.4 501.3 857C537.9 827 568.1 791.3 593.1 751.1C614.5 716.7 632.5 680.5 650.6 644.4C669 607.7 687.7 571.1 710.2 536.7C721 520.1 730.3 502.5 743.7 487.5C762.9 466 784 446.6 806.5 428.8C840 402.4 874.1 376.6 908 350.6C908.2 350 908.8 349.7 910.2 348.9Z" fill="#242E63"></path><path d="M71.5996 997.9C79.8996 1003.2 87.2996 1007.8 94.5996 1012.5C140.8 1042.2 186.7 1072.4 233.5 1101.2C248.2 1110.3 265 1116.1 281.2 1122.5C315.2 1135.9 349.9 1147.3 385.9 1153.7C406.2 1157.3 426.8 1159.7 447.4 1161C479.6 1163 509.3 1153.9 537 1137.8C559.1 1124.9 580.9 1111.5 603.1 1098.8C632.2 1082.1 663.6 1074.4 697.1 1074.4C731.5 1074.3 765.4 1078.8 799.3 1083.4C831.8 1087.8 864.2 1092.3 897.1 1091.9C919.3 1091.6 939.6 1084.5 959.6 1075.9C975.3 1069.2 991 1062.1 1008.2 1060.2C1014.6 1059.5 1021.2 1059.5 1027.7 1059.8C1029.2 1059.9 1031.3 1062.2 1031.9 1063.9C1035.9 1076.9 1033.4 1089.5 1027.9 1101.4C1014.9 1129.9 993.2 1150.7 967.6 1167.9C956 1175.7 943.8 1182.1 929.7 1184.1C927.1 1184.5 924.5 1184.5 921.9 1184.5C863.8 1184.5 805.7 1184.5 747.7 1184.5C744.8 1184.5 741.5 1183.5 739.6 1187.3C737.7 1191.3 737.7 1195.4 740.5 1198.3C744.9 1203 749.7 1207.8 755.2 1210.9C781.3 1225.5 809.2 1235.4 839.1 1238.4C854.8 1239.9 870.7 1240.8 886.4 1240.5C920 1240 952 1231.5 983.2 1219.1C1027 1201.7 1065.7 1176.2 1101.7 1146.1C1124.8 1126.8 1149 1108.6 1172.9 1090.4C1185.4 1080.8 1199.9 1075.4 1215.6 1073.7C1228.8 1072.3 1235.2 1077.6 1235.5 1090.7C1235.9 1108.8 1229 1124.3 1218.1 1138.4C1200.7 1160.8 1180.3 1180.2 1159.1 1198.9C1127 1227.2 1093.3 1253.4 1057.9 1277.4C1025.4 1299.4 990.3 1316.8 954.2 1332C916.1 1348 876.9 1360.4 836.5 1369.1C794.3 1378.2 751.7 1383.5 708.6 1384.7C669.2 1385.9 630 1383.8 591 1378.3C541.8 1371.4 493.9 1359.3 447.2 1342.2C401.1 1325.3 357.4 1303.7 316 1277.4C263 1243.7 215.7 1203.2 174.1 1156.1C132.9 1109.3 99.2996 1057.5 72.4996 1001.3C72.4996 1000.5 72.1996 999.8 71.5996 997.9Z" fill="#242E63"></path><path d="M281.4 927.5C280.5 906.1 285.4 882.3 292 858.6C296.6 842.1 301.4 825.5 300.5 808.2C300 797.4 297.5 786.7 295.2 776.1C293.4 767.4 287.4 761.6 279.1 759.1C268.2 755.8 257 753.6 246 750.9C240.3 749.5 234.6 748.3 229 746.6C222 744.5 215.9 740.8 212.4 733.9C202.4 714.4 192.3 694.8 182.3 675.3C180.1 671 180.8 667.4 182.9 663C194.4 639.2 205.3 615.2 216.5 591.3C226.2 570.6 237 550.5 252.5 533.4C270.2 514 291.9 502.8 318.3 501.3C324.8 500.9 326.3 499.5 324.6 493C321.2 480.6 316.9 468.5 313.4 456.1C311.5 449.4 309.8 442.6 309 435.7C308.7 433.2 310.6 429 312.6 428.1C314.9 427 319.1 427.8 321.4 429.4C328.8 434.3 336.7 437.2 345.6 437.8C350.2 438.1 354.7 438.6 359.3 438.8C370.1 439.4 379.7 443.2 388 449.9C417.4 473.5 446.7 497 475.8 520.9C485.7 529.1 494.9 538.2 504.5 546.7C515.7 556.6 524.2 568.3 530.8 581.6C552 624.9 569.5 669.6 581.5 716.3C583 722.1 583.6 728.2 584.5 734.1C585.5 740.7 584 747 580 752.2C568.4 767.3 557 782.6 544.4 796.8C517.8 826.9 487.3 853.1 456.5 878.8C409.8 917.7 362.3 955.7 315.3 994.2C312.5 996.5 310.3 999.4 307.6 1001.6C305.1 1003.6 302.4 1005.7 299.4 1006.6C293.3 1008.4 290.8 1006.6 289.3 1000.5C283.7 977.8 281.2 954.5 281.4 927.5Z" fill="#242E63"></path><path d="M936.5 921.001C926.5 917.501 917.3 914.801 908.4 911.201C899.5 907.601 894 900.401 890.6 891.401C888.8 886.601 889.4 882.301 892.8 878.701C898.8 872.201 902.2 864.501 905.4 856.401C910.4 843.801 918 832.801 930.6 826.301C933.3 824.901 936.4 823.801 939.4 823.701C943.1 823.501 943.5 822.001 943.6 818.901C943.9 799.801 949.1 782.001 958.9 765.501C961.1 761.901 965.6 760.201 971.7 762.101C973.4 762.601 975 766.201 975.2 768.501C976.1 779.401 979.2 789.401 984.9 798.901C987.7 803.601 988 809.801 989.4 814.901C991.4 813.101 994.1 810.601 996.7 808.101C1013.7 791.901 1033.9 782.801 1057.3 780.301C1061.9 779.801 1063.5 781.501 1063.6 785.901C1063.7 792.901 1062.5 799.501 1057.8 805.101C1051.8 812.201 1046.7 820.301 1039.8 826.301C1034 831.401 1026.2 834.301 1019.2 837.801C1014.1 840.401 1008.8 842.401 1003.5 844.701C1000.4 846.001 998.9 848.001 998.8 851.801C998.4 867.001 998.3 866.801 1011.7 874.301C1016.4 877.001 1020.6 877.501 1025.9 876.001C1044.6 870.801 1063.5 869.801 1082.4 875.001C1110.9 882.901 1128.9 901.801 1138.9 929.201C1144 943.301 1145.1 957.801 1145.1 972.501C1145.1 974.901 1145.5 977.401 1145.4 979.801C1145.2 984.101 1147 987.001 1150.3 989.801C1152.8 992.001 1154.8 995.401 1155.9 998.601C1159.2 1008.9 1159.5 1019.5 1157.6 1030C1155.5 1041.8 1149.4 1046 1137.5 1044.6C1136.2 1044.4 1134.9 1044.3 1133.7 1043.8C1125.7 1040.3 1120.5 1042 1114.9 1049.6C1111.6 1054.2 1103.6 1056.6 1097.3 1057.7C1077 1061.5 1056.5 1062.4 1036 1059.2C1033 1058.7 1029.9 1057.8 1027.1 1056.6C1024.1 1055.3 1023.3 1052.9 1026.1 1050.5C1028.6 1048.4 1031.2 1046.4 1033.9 1044.7C1036.3 1043.1 1036.6 1041.5 1035.4 1039C1033.2 1034.3 1029.5 1031.7 1024.6 1030.9C1017.9 1029.8 1011.1 1028.8 1004.3 1027.9C1003.4 1027.8 1002 1028.7 1001.3 1029.5C999.9 1031.3 998.9 1033.4 997.7 1035.3C992.6 1043.9 985.3 1049.7 975.2 1050.9C967 1051.9 958.7 1052.3 950.4 1052.3C946 1052.3 941.4 1051.4 940 1046C938.7 1041.1 940.6 1037.1 946 1033.9C949.1 1032.1 952.3 1030.5 955.4 1028.7C958.5 1026.9 960.1 1024.4 959 1020.5C958 1017.1 957.8 1013.4 956.5 1010.1C955.6 1007.8 954.1 1005.2 952.1 1004.1C942.6 999.101 937 991.201 935 980.901C932.6 969.101 930.4 957.301 928.4 945.401C927.3 939.001 929.2 933.201 932.7 927.801C934.3 925.701 935.4 923.201 936.5 921.001Z" fill="#242E63"></path><path d="M1159.9 1031.2C1164.2 1024.5 1168.4 1018.1 1172.5 1011.8C1203 965.5 1229 916.9 1246.6 864.1C1256 835.9 1261.9 806.9 1266.5 777.5C1271.7 743.9 1274 710.2 1273.6 676.2C1273.3 649.4 1271 622.8 1267 596.4C1260.7 554.2 1249.6 513.2 1233.9 473.6C1217.5 432.1 1196.8 392.9 1171.3 356.1C1153.8 330.8 1134.6 307 1113.6 284.7C1087.8 257.3 1059.6 232.8 1029 210.8C988.7 181.8 945.5 158.2 899.2 140.2C860.5 125.1 820.7 114.4 779.7 107.6C749.4 102.6 718.8 100.2 688.2 100.2C651.3 100.2 614.7 103.7 578.4 110.8C534.8 119.3 492.3 131.5 451.4 149.2C397.6 172.5 348.4 203.3 304.2 241.7C256.1 283.5 216 332.1 183.6 387.1C151.9 440.9 129.3 498.2 115.4 559C102.8 614.5 98.2997 670.8 102.1 727.6C105.1 773.8 114 818.9 127.7 863.2C137.4 894.7 151.3 924.2 167.5 952.8C178.9 972.9 189.4 993.6 196.1 1015.9C196.8 1018.2 196.6 1020.8 196.8 1023.2C194.2 1022.8 191.2 1023.1 189.2 1021.8C175.8 1013.2 161.9 1005.1 149.4 995.2C117 969.4 85.5997 942.5 53.2997 916.6C35.5997 902.4 26.7997 883.3 19.9997 862.6C11.9997 838.5 7.39974 813.7 4.59974 788.6C-0.100263 746.3 -0.300282 704 2.29972 661.6C4.99972 617.5 10.4997 573.7 19.1997 530.4C26.7997 492.5 38.6997 455.8 52.9997 419.9C67.4997 383.8 84.9997 349.2 105.6 316.3C126.9 282.4 151.1 250.8 178.3 221.3C220.7 175.3 268.7 136.3 322.1 103.8C347.9 88.1003 374.6 74.2002 402.2 61.9002C445.7 42.4002 490.9 27.8002 537.4 17.5002C570.3 10.2002 603.6 4.70021 637.4 3.00021C659.5 1.80021 681.7 0.200197 703.8 0.800197C730 1.5002 756.2 3.80021 782.2 6.50021C818.1 10.2002 853.2 18.1002 887.8 28.2002C927.7 39.9002 966.3 55.1002 1003.5 74.0002C1036.9 91.0002 1068.5 110.6 1098.6 132.8C1123.6 151.2 1147 171.5 1169.2 193.1C1212.2 234.8 1248.1 282.1 1277.4 334.3C1306.2 385.5 1328.3 439.5 1344.6 495.9C1354 528.7 1361.4 561.9 1366.5 595.5C1371.5 628.2 1374.9 661.2 1374.7 694.3C1374.6 717.6 1374.3 741 1372.6 764.2C1368.2 823.4 1355.5 880.8 1333.4 935.9C1320.3 968.7 1303.7 999.7 1283.8 1028.9C1281.1 1032.9 1278 1036.8 1274.4 1040.1C1270.4 1043.8 1265.5 1043.9 1260.9 1040.8C1258.1 1038.9 1255.3 1036.9 1252.6 1034.7C1239.9 1024.4 1225.3 1021.3 1209.4 1023.6C1193.5 1025.9 1177.6 1028.7 1161.7 1031.3C1161.3 1031.4 1160.9 1031.2 1159.9 1031.2ZM1169.8 1026C1170.8 1025.9 1172 1025.7 1173.3 1025.5C1186.9 1023.2 1200.5 1020.3 1214.2 1018.9C1227.6 1017.5 1240.5 1019.9 1251.6 1028.6C1255.6 1031.7 1259.7 1034.6 1263.9 1037.3C1267.1 1039.4 1270.2 1038.6 1272.6 1035.7C1275.4 1032.3 1278.4 1029 1280.7 1025.3C1289.8 1010.4 1298.8 995.5 1307.4 980.4C1319.5 959.2 1329.2 936.8 1336.9 913.7C1343.6 893.7 1349.6 873.3 1354.3 852.7C1359.2 831 1363.1 808.9 1365.8 786.8C1368.4 765.5 1369.1 743.9 1370.2 722.4C1371.9 691.2 1369.7 660.1 1366.2 629.1C1363.4 604.4 1359.1 579.8 1354.4 555.3C1350.9 536.8 1346.7 518.2 1341.1 500.2C1333 474.1 1324.3 448.1 1314.3 422.7C1305.5 400.3 1295.3 378.4 1284.5 356.9C1265.8 319.7 1243.1 284.9 1217.2 252.3C1199.6 230.1 1179.9 209.7 1159.5 190C1138.4 169.8 1116.2 150.9 1092.6 133.8C1076.2 121.9 1058.8 111.2 1041.6 100.4C1005.9 78.2002 968 60.5002 928.5 46.1002C896.8 34.6002 864.4 25.5002 831.3 18.7002C793.7 11.0002 755.7 6.40022 717.3 5.20022C692.6 4.40022 667.7 5.7002 643 6.8002C608.2 8.3002 573.9 13.7002 540 21.4002C517.5 26.5002 495.3 33.0002 473.2 39.9002C453.3 46.2002 433.3 52.9002 414.2 61.3002C380.4 76.2002 347.3 92.6003 316.1 112.8C294.6 126.7 273.6 141.1 253.6 157.1C229.3 176.6 206.5 197.6 185.2 220.4C162.9 244.3 142 269.2 124.2 296.5C111.1 316.5 97.8997 336.6 86.5997 357.6C73.6997 381.7 61.8997 406.4 52.9997 432.3C46.3997 451.5 38.3997 470.4 33.3997 490.1C26.1997 518.7 19.7997 547.6 15.5997 576.7C10.6997 611.3 7.59974 646.3 5.69974 681.3C3.79974 715.1 4.39974 749.1 8.19974 782.9C11.7997 814.4 16.9997 845.5 29.4997 874.9C33.1997 883.7 37.4997 892.6 43.3997 899.9C50.2997 908.4 58.9998 915.6 67.3998 922.8C86.0998 938.7 104.9 954.6 124.2 969.8C141.7 983.6 159.8 996.6 177.7 1009.8C181.8 1012.8 186.5 1015.1 191.9 1018.3C191.1 1015.5 190.8 1013.9 190.2 1012.5C183.8 997.7 177.8 982.7 170.7 968.3C161 948.6 149.5 929.7 140.4 909.7C124.8 875.5 115.1 839.3 107.5 802.5C100.7 769.5 96.5997 736.2 96.4997 702.6C96.3997 675.5 97.8997 648.2 100.2 621.2C103 588.3 110.3 556.2 119.4 524.4C127.2 497.3 136.2 470.5 148.5 445.1C159.5 422.3 171.5 399.8 183.9 377.7C198 352.7 214.8 329.5 233.3 307.6C245.3 293.4 257.9 279.8 270.9 266.6C283.7 253.7 297 241 311 229.4C335.2 209.4 360.9 191.3 388.2 175.5C420.2 157 453.4 141.4 488.4 129.5C516.2 120 544.5 112.5 573.3 106.8C606.8 100.2 640.6 96.6002 674.7 95.7002C703.6 94.9002 732.5 95.8002 761 100.4C785.1 104.3 809.3 108.2 833 114C853.2 118.9 873.1 125.5 892.5 133C914.8 141.6 937.1 150.7 958.3 161.7C996.8 181.7 1032.8 205.8 1066.1 233.8C1090.3 254.2 1113 276.2 1133.7 300.1C1155.9 325.7 1175.9 353 1193.5 382.1C1212.4 413.4 1228.3 446 1241.1 480.2C1254.8 516.9 1265.4 554.6 1270.7 593.5C1274 617.5 1276.5 641.7 1277.6 665.9C1279.1 701.8 1276.7 737.5 1271.4 773.1C1266 809 1258.5 844.2 1246.1 878.4C1236.9 903.7 1226.2 928.4 1213.1 951.8C1199.4 977 1184.4 1001.3 1169.8 1026Z" fill="#31366A"></path><path d="M1169.8 1026C1184.4 1001.2 1199.3 976.901 1213.2 952.101C1226.3 928.601 1237 904.001 1246.2 878.701C1258.6 844.501 1266.2 809.301 1271.5 773.401C1276.8 737.801 1279.3 702.001 1277.7 666.201C1276.7 642.001 1274.1 617.801 1270.8 593.801C1265.5 554.901 1255 517.301 1241.2 480.501C1228.4 446.401 1212.5 413.701 1193.6 382.401C1176 353.301 1156 326.001 1133.8 300.401C1113.1 276.501 1090.5 254.501 1066.2 234.101C1032.9 206.101 996.899 182.001 958.399 162.001C937.199 151.001 914.899 141.901 892.599 133.301C873.199 125.801 853.299 119.201 833.099 114.301C809.399 108.601 785.199 104.601 761.099 100.701C732.499 96.1011 703.699 95.2012 674.799 96.0012C640.699 96.9012 606.899 100.501 573.399 107.101C544.599 112.801 516.199 120.301 488.499 129.801C453.599 141.701 420.299 157.301 388.299 175.801C360.999 191.601 335.299 209.601 311.099 229.701C297.099 241.301 283.799 253.901 270.999 266.901C257.899 280.001 245.299 293.701 233.399 307.901C214.899 329.801 197.999 353.001 183.999 378.001C171.599 400.101 159.599 422.601 148.599 445.401C136.299 470.801 127.299 497.601 119.499 524.701C110.399 556.401 103.199 588.601 100.299 621.501C97.9993 648.601 96.4993 675.801 96.5993 702.901C96.6993 736.501 100.799 769.801 107.599 802.801C115.199 839.601 124.899 875.801 140.499 910.001C149.599 930.001 161.099 948.801 170.799 968.601C177.899 983.001 183.899 998.001 190.299 1012.8C190.899 1014.2 191.199 1015.8 191.999 1018.6C186.499 1015.4 181.899 1013.1 177.799 1010.1C159.799 996.901 141.699 983.901 124.299 970.101C104.999 954.901 86.1993 939.001 67.4993 923.101C59.0993 915.901 50.3993 908.701 43.4993 900.201C37.5993 892.901 33.2993 884.001 29.5993 875.201C17.0993 845.801 11.8993 814.701 8.29932 783.201C4.49932 749.401 3.89932 715.401 5.79932 681.601C7.69932 646.701 10.7993 611.701 15.6993 577.001C19.7993 547.901 26.2993 519.001 33.4993 490.401C38.4993 470.701 46.3993 451.801 53.0993 432.601C61.9993 406.701 73.7993 381.901 86.6993 357.901C97.9993 336.801 111.199 316.801 124.299 296.801C142.099 269.501 162.999 244.501 185.299 220.701C206.599 197.901 229.399 176.901 253.699 157.401C273.699 141.401 294.699 127.001 316.199 113.101C347.399 92.9011 380.399 76.5011 414.299 61.6011C433.399 53.2011 453.399 46.5012 473.299 40.2012C495.299 33.3012 517.599 26.8012 540.099 21.7012C573.999 14.0012 608.299 8.60115 643.099 7.10115C667.799 6.00115 692.699 4.80117 717.399 5.50117C755.699 6.70117 793.699 11.3012 831.399 19.0012C864.499 25.8012 896.899 34.9012 928.599 46.4012C968.099 60.7012 1006 78.4011 1041.7 100.701C1059 111.501 1076.3 122.101 1092.7 134.101C1116.3 151.201 1138.5 170.101 1159.6 190.301C1180.1 210.001 1199.7 230.401 1217.3 252.601C1243.2 285.201 1266 319.901 1284.6 357.201C1295.4 378.701 1305.7 400.601 1314.4 423.001C1324.4 448.401 1333.1 474.401 1341.2 500.501C1346.8 518.501 1351 537.001 1354.5 555.601C1359.2 580.101 1363.5 604.701 1366.3 629.401C1369.8 660.301 1372 691.501 1370.3 722.701C1369.1 744.201 1368.5 765.701 1365.9 787.101C1363.2 809.201 1359.3 831.301 1354.4 853.001C1349.7 873.601 1343.7 894.001 1337 914.001C1329.3 937.101 1319.6 959.501 1307.5 980.701C1298.9 995.801 1289.8 1010.7 1280.8 1025.6C1278.5 1029.3 1275.5 1032.6 1272.7 1036C1270.3 1038.9 1267.2 1039.6 1264 1037.6C1259.8 1034.9 1255.6 1032 1251.7 1028.9C1240.6 1020.2 1227.7 1017.8 1214.3 1019.2C1200.6 1020.6 1187 1023.6 1173.4 1025.8C1172.1 1025.8 1170.8 1025.9 1169.8 1026Z" fill="#00A3D6"></path><path d="M1575 719.298L1618 715.698L1629.5 704.198V322.098L1618 312.098L1572.1 308.498V273.398H1932V393.798H1882.5L1871.7 324.298L1862.4 314.998H1724V493.498H1820.1L1830.1 484.198L1837.3 431.898H1879.6V598.898H1837.3L1830.1 546.598L1820.1 537.298H1724V704.298L1736.2 715.798L1786.4 719.398V754.498H1575V719.298Z" fill="#233062"></path><path d="M2189.3 273.398C2300.4 273.398 2357.8 315.698 2357.8 395.298C2357.8 461.298 2316.2 503.498 2234.5 518.598C2268.9 526.498 2293.3 540.098 2309.8 562.998C2332 594.498 2338.5 632.498 2352.1 669.098C2367.2 708.498 2387.9 720.698 2436 720.698C2438.9 720.698 2441.7 719.298 2445.3 719.298V753.698C2417.3 757.298 2395.8 759.398 2379.3 759.398C2317.7 759.398 2276.1 732.198 2256.7 680.498C2242.4 641.098 2236.6 604.498 2215.8 577.298C2197.2 553.598 2169.2 542.898 2129.1 542.898H2118.3V704.198L2129.8 715.698L2173.5 719.298V754.398H1971.3V719.298L2013.6 715.698L2025.1 704.198V322.098L2013.6 312.098L1971.3 308.498V273.398H2189.3ZM2118.4 501.398C2127.7 502.098 2136.3 502.098 2144.2 502.098C2220.9 502.098 2257.5 471.998 2257.5 405.998C2257.5 347.198 2220.9 314.198 2151.4 314.198H2118.4V501.398Z" fill="#233062"></path><path d="M2702.6 268.399L2867.5 712.099L2909.8 719.299V754.399H2716.2V719.299L2761.4 714.999L2766.4 705.699L2723.4 583.799H2567.1L2524.1 704.899L2531.3 714.199L2576.5 719.199V754.299H2422.4V719.199L2465.4 712.699L2627.4 268.199H2702.6V268.399ZM2580.7 543.699H2706.9L2643.1 366.599L2580.7 543.699Z" fill="#233062"></path><path d="M2915.5 720L2957.8 714.3L2970.7 701.4V322.2L2960.7 312.2L2914.8 307.9V273.5H3079.7V292.9L3299.1 633.4V326.6L3286.2 313L3242.5 308V273.6H3405.9V308L3363.6 313L3351.4 326.6V754.6H3271.1L3023.1 369.6V701.5L3034.6 714.4L3079 720.1V754.5H2915.6V720H2915.5Z" fill="#233062"></path><path d="M3698.3 762.999C3646.7 762.999 3600.8 751.499 3566.4 730.699C3491.8 686.299 3447.4 605.999 3447.4 514.199C3447.4 441.099 3473.2 377.299 3522 330.699C3567.2 286.999 3628.1 264.699 3702.6 264.699C3752.1 264.699 3801.5 273.999 3848.8 291.199V410.999H3795.8L3782.2 334.299L3772.2 322.099C3753.6 314.899 3734.9 311.299 3715.6 311.299C3617.4 311.299 3552.9 386.599 3552.9 513.499C3552.9 641.799 3618.9 717.799 3724.9 717.799C3737.1 717.799 3751.4 715.599 3768.6 711.299L3779.4 700.499L3797.3 613.799H3848.9V737.099C3800.8 754.399 3750.7 762.999 3698.3 762.999Z" fill="#233062"></path><path d="M3896.9 719.298L3944.2 715.698L3955.7 704.198V322.098L3944.2 312.098L3896.9 308.498V273.398H4111.2V308.498L4063.2 312.098L4051.7 322.098V704.198L4063.2 715.698L4111.2 719.298V754.398H3896.9V719.298Z" fill="#233062"></path><path d="M4171.5 608.898H4226L4237.5 694.898L4246.8 705.698C4267.6 712.198 4288.4 715.698 4309.9 715.698C4368 715.698 4402.4 686.998 4402.4 647.598C4402.4 608.198 4376.6 583.098 4325.7 557.298C4297 542.998 4262.6 530.798 4231.8 504.298C4198.8 476.298 4181.6 441.198 4181.6 406.098C4181.6 326.498 4248.3 264.898 4350.8 264.898C4395.2 264.898 4440.4 273.498 4485.6 289.298V405.398H4434L4421.8 330.798L4411.8 320.798C4398.2 314.298 4381 310.798 4359.5 310.798C4307.2 310.798 4274.9 338.798 4274.9 378.898C4274.9 412.598 4295 433.398 4333 456.298C4355.9 469.898 4393.2 481.398 4435.5 507.898C4477.1 534.398 4500 573.098 4500 615.398C4500 700.698 4427.6 762.398 4310 762.398C4264.1 762.398 4216.8 754.498 4171.6 738.698V608.898H4171.5Z" fill="#233062"></path><path d="M1562.6 1115.7L1581.1 1114.1L1586.7 1109.1V941.798L1582 937.398L1561.3 935.798V920.398H1646C1704.4 920.398 1731.7 938.598 1731.7 983.798C1731.7 1027.4 1702.2 1053.5 1649.5 1053.5C1643.9 1053.5 1636.9 1053.2 1628.2 1052.6V1109.1L1632.9 1114.1L1655.2 1115.7V1131.1H1562.6V1115.7ZM1639.5 1035.3C1672.1 1035.3 1688.5 1018.4 1688.5 985.098C1688.5 955.298 1673.1 938.598 1644.6 938.598H1628.3V1034.6C1632.3 1035 1636 1035.3 1639.5 1035.3Z" fill="#233062"></path><path d="M1746.8 1115.7L1765.9 1114.1L1770.9 1109.1V941.798L1765.9 937.398L1746.8 935.798V920.398H1905V969.698H1883L1878.3 942.098L1874.2 937.998H1811.7V1012.7H1852.5L1856.9 1008.3L1860 985.698H1878.5V1058.5H1860L1856.9 1035.9L1852.5 1031.5H1811.7V1113.1H1884.5L1888.6 1108.1L1893.9 1074.8H1915.2V1131H1746.7V1115.7H1746.8Z" fill="#233062"></path><path d="M2110.9 920.398V975.998H2089.2L2083.9 942.398L2079.2 938.298H2041.5V1109L2046.8 1114L2067.2 1115.6V1131H1973.4V1115.6L1993.8 1114L1999.1 1109V938.298H1961.4L1956.4 942.398L1951.4 975.998H1929.7V920.398H2110.9Z" fill="#233062"></path><path d="M2230.8 1134.8C2208.2 1134.8 2188.1 1129.8 2173.1 1120.7C2140.5 1101.2 2121 1066.1 2121 1025.9C2121 993.899 2132.3 965.999 2153.6 945.599C2173.4 926.499 2200.1 916.699 2232.7 916.699C2254.4 916.699 2276 920.799 2296.7 928.299V980.699H2273.5L2267.5 947.099L2263.1 941.799C2254.9 938.699 2246.8 937.099 2238.3 937.099C2195.3 937.099 2167.1 970.099 2167.1 1025.6C2167.1 1081.8 2196 1115 2242.4 1115C2247.7 1115 2254 1114.1 2261.5 1112.2L2266.2 1107.5L2274 1069.5H2296.6V1123.5C2275.7 1131 2253.7 1134.8 2230.8 1134.8Z" fill="#233062"></path><path d="M2427.6 918.2L2499.8 1112.5L2518.3 1115.6V1131H2433.6V1115.6L2453.4 1113.7L2455.6 1109.6L2436.8 1056.2H2368.4L2349.6 1109.2L2352.7 1113.3L2372.5 1115.5V1130.9H2305V1115.5L2323.8 1112.7L2394.7 918.1H2427.6V918.2ZM2374.2 1038.8H2429.4L2401.5 961.3L2374.2 1038.8Z" fill="#233062"></path><path d="M2617.8 920.398C2666.4 920.398 2691.6 938.898 2691.6 973.798C2691.6 1002.7 2673.4 1021.2 2637.6 1027.8C2652.7 1031.3 2663.3 1037.2 2670.6 1047.3C2680.3 1061.1 2683.2 1077.7 2689.1 1093.8C2695.7 1111.1 2704.8 1116.4 2725.8 1116.4C2727.1 1116.4 2728.3 1115.8 2729.9 1115.8V1130.9C2717.7 1132.5 2708.2 1133.4 2701 1133.4C2674 1133.4 2655.8 1121.5 2647.3 1098.9C2641 1081.6 2638.5 1065.6 2629.4 1053.7C2621.2 1043.3 2609 1038.6 2591.4 1038.6H2586.7V1109.2L2591.7 1114.2L2610.8 1115.8V1131.2H2522.3V1115.8L2540.8 1114.2L2545.8 1109.2V941.898L2540.8 937.498L2522.3 935.898V920.498H2617.8V920.398ZM2586.7 1020.2C2590.8 1020.5 2594.5 1020.5 2598 1020.5C2631.6 1020.5 2647.6 1007.3 2647.6 978.398C2647.6 952.698 2631.6 938.198 2601.1 938.198H2586.7V1020.2Z" fill="#233062"></path><path d="M2732.3 1115.7L2751.4 1114.1L2756.4 1109.1V941.798L2751.4 937.398L2732.3 935.798V920.398H2890.5V969.698H2868.5L2863.8 942.098L2859.7 937.998H2797.2V1012.7H2838L2842.4 1008.3L2845.5 985.698H2864V1058.5H2845.5L2842.4 1035.9L2838 1031.5H2797.2V1113.1H2870L2874.1 1108.1L2879.4 1074.8H2900.7V1131H2732.2V1115.7H2732.3Z" fill="#233062"></path><path d="M3099.9 920.398V935.798L3081.1 937.398L3076.1 942.398V1011.1H3166.8V942.398L3162.1 937.398L3143.3 935.798V920.398H3231.8V935.798L3213.6 937.398L3208.6 942.398V1109.1L3213.6 1114.1L3231.8 1115.7V1131.1H3143.3V1115.7L3162.1 1114.1L3166.8 1109.1V1030H3076V1109.1L3081 1114.1L3099.8 1115.7V1131.1H3011V1115.7L3029.2 1114.1L3034.2 1109.1V942.398L3029.2 937.398L3011 935.798V920.398H3099.9Z" fill="#233062"></path><path d="M3285.4 942.999C3305.2 924.799 3329.7 915.699 3358.8 915.699C3385.8 915.699 3408.7 923.899 3427.8 940.199C3452 960.899 3465.1 990.999 3465.1 1026.5C3465.1 1059.5 3453.5 1088 3431.5 1108.4C3412 1126.6 3386.9 1136.3 3358.4 1136.3C3331.4 1136.3 3307.6 1127.8 3288.7 1111.2C3265.2 1090.8 3252.9 1061 3252.9 1024.6C3253 990.399 3264 962.799 3285.4 942.999ZM3299.8 1025.3C3299.8 1082.7 3325.2 1116.9 3358.8 1116.9C3393.3 1116.9 3418.1 1083 3418.1 1027.5C3418.1 969.399 3393.6 935.899 3359.4 935.899C3324.6 935.799 3299.8 969.099 3299.8 1025.3Z" fill="#233062"></path><path d="M3494.7 1067.3H3518.6L3523.6 1105L3527.7 1109.7C3536.8 1112.5 3545.9 1114.1 3555.3 1114.1C3580.7 1114.1 3595.8 1101.5 3595.8 1084.3C3595.8 1067 3584.5 1056.1 3562.2 1044.8C3549.6 1038.5 3534.6 1033.2 3521.1 1021.6C3506.7 1009.4 3499.1 993.999 3499.1 978.599C3499.1 943.799 3528.3 916.799 3573.2 916.799C3592.7 916.799 3612.4 920.599 3632.2 927.499V978.299H3609.6L3604.3 945.699L3599.9 941.299C3593.9 938.499 3586.4 936.899 3577 936.899C3554.1 936.899 3540 949.099 3540 966.699C3540 981.499 3548.8 990.599 3565.4 1000.6C3575.4 1006.6 3591.8 1011.6 3610.3 1023.2C3628.5 1034.8 3638.5 1051.8 3638.5 1070.3C3638.5 1107.6 3606.8 1134.6 3555.3 1134.6C3535.2 1134.6 3514.5 1131.1 3494.7 1124.2V1067.3Z" fill="#233062"></path><path d="M3663.6 1115.7L3682.1 1114.1L3687.7 1109.1V941.798L3683 937.398L3662.3 935.798V920.398H3747C3805.4 920.398 3832.7 938.598 3832.7 983.798C3832.7 1027.4 3803.2 1053.5 3750.5 1053.5C3744.9 1053.5 3737.9 1053.2 3729.2 1052.6V1109.1L3733.9 1114.1L3756.2 1115.7V1131.1H3663.6V1115.7ZM3740.5 1035.3C3773.1 1035.3 3789.5 1018.4 3789.5 985.098C3789.5 955.298 3774.1 938.598 3745.6 938.598H3729.3V1034.6C3733.2 1035 3737 1035.3 3740.5 1035.3Z" fill="#233062"></path><path d="M3848.1 1115.7L3868.8 1114.1L3873.8 1109.1V941.798L3868.8 937.398L3848.1 935.798V920.398H3941.9V935.798L3920.9 937.398L3915.9 941.798V1109.1L3920.9 1114.1L3941.9 1115.7V1131.1H3848.1V1115.7Z" fill="#233062"></path><path d="M4135.9 920.398V975.998H4114.2L4108.9 942.398L4104.2 938.298H4066.5V1109L4071.8 1114L4092.2 1115.6V1131H3998.4V1115.6L4018.8 1114L4024.1 1109V938.298H3986.4L3981.4 942.398L3976.4 975.998H3954.7V920.398H4135.9Z" fill="#233062"></path><path d="M4237.9 918.2L4310.1 1112.5L4328.6 1115.6V1131H4243.9V1115.6L4263.7 1113.7L4265.9 1109.6L4247.1 1056.2H4178.7L4159.9 1109.2L4163 1113.3L4182.8 1115.5V1130.9H4115.3V1115.5L4134.1 1112.7L4205 918.1H4237.9V918.2ZM4184.6 1038.8H4239.8L4211.9 961.3L4184.6 1038.8Z" fill="#233062"></path><path d="M4331.4 1115.7L4350.5 1114.1L4355.8 1109.1V941.798L4351.4 937.398L4331.3 935.798V920.398H4421.7V935.798L4402.6 937.398L4397.6 941.798V1112.9H4457.9L4462 1107.9L4466.7 1069.6H4489.9V1131.1H4331.4V1115.7Z" fill="#233062"></path></svg>